<?xml version="1.0" standalone="no"?>
<!DOCTYPE svg PUBLIC "-//W3C//DTD SVG 20010904//EN"
 "http://www.w3.org/TR/2001/REC-SVG-20010904/DTD/svg10.dtd">
<svg version="1.0" xmlns="http://www.w3.org/2000/svg"
 width="512.000000pt" height="512.000000pt" viewBox="0 0 512.000000 512.000000"
 preserveAspectRatio="xMidYMid meet">

<g transform="translate(0.000000,512.000000) scale(0.100000,-0.100000)"
fill="#000000" stroke="none">
<path d="M966 5069 c-149 -22 -328 -92 -455 -179 -83 -55 -190 -158 -252 -239
-69 -91 -153 -266 -186 -386 l-28 -100 0 -965 0 -965 27 -100 c66 -238 209
-453 397 -596 94 -71 267 -154 385 -184 54 -14 109 -25 122 -25 l24 0 2 -610
3 -610 33 -32 c28 -28 39 -33 82 -33 l50 0 637 637 638 637 860 3 860 3 100
28 c237 64 453 207 596 396 69 91 153 266 186 386 l28 100 0 965 0 965 -28
100 c-33 120 -117 295 -186 386 -172 225 -434 379 -715 418 -95 13 -3090 13
-3180 0z m3164 -240 c182 -29 325 -104 460 -239 136 -136 210 -279 239 -460
15 -88 15 -1771 0 -1860 -26 -164 -102 -318 -219 -443 -109 -117 -227 -188
-393 -239 -71 -22 -80 -22 -969 -28 l-898 -5 -555 -555 -554 -554 -3 522 -3
522 -31 31 c-30 29 -39 32 -130 40 -237 22 -417 108 -572 274 -107 114 -186
276 -211 435 -15 89 -15 1772 0 1860 29 182 104 325 239 460 133 132 280 210
452 239 79 13 3067 13 3148 0z"/>
<path d="M1835 3951 c-51 -22 -63 -52 -270 -716 -161 -515 -205 -668 -201
-695 3 -19 18 -47 36 -65 26 -25 38 -30 80 -30 75 0 99 30 148 185 l39 125
293 0 293 0 39 -125 c49 -155 73 -185 148 -185 42 0 54 5 80 30 18 18 33 46
36 65 4 27 -40 181 -201 695 -180 576 -210 664 -236 690 -29 30 -31 30 -147
32 -64 2 -126 -1 -137 -6z m236 -611 l106 -340 -217 0 -217 0 106 340 c58 187
108 340 111 340 3 0 53 -153 111 -340z"/>
<path d="M2795 3950 c-11 -4 -31 -20 -45 -35 l-25 -27 0 -689 0 -689 33 -32
c28 -28 39 -33 82 -33 43 0 54 5 82 33 l33 32 3 285 3 285 142 0 142 0 145
-290 c82 -165 157 -303 173 -318 23 -22 38 -27 77 -27 42 0 54 5 81 31 20 20
32 44 36 70 4 35 -9 67 -127 304 -118 236 -130 266 -115 275 117 69 189 157
225 272 73 237 -70 484 -317 548 -44 12 -119 15 -333 14 -151 0 -284 -4 -295
-9z m632 -262 c62 -41 88 -90 88 -168 0 -78 -26 -127 -88 -168 -40 -27 -42
-27 -254 -30 l-213 -3 0 201 0 201 213 -3 c212 -3 214 -3 254 -30z"/>
</g>
</svg>
