<?xml version="1.0" standalone="no"?>
<!DOCTYPE svg PUBLIC "-//W3C//DTD SVG 20010904//EN"
 "http://www.w3.org/TR/2001/REC-SVG-20010904/DTD/svg10.dtd">
<svg version="1.0" xmlns="http://www.w3.org/2000/svg"
 width="512.000000pt" height="512.000000pt" viewBox="0 0 512.000000 512.000000"
 preserveAspectRatio="xMidYMid meet">

<g transform="translate(0.000000,512.000000) scale(0.100000,-0.100000)"
fill="#000000" stroke="none">
<path d="M966 5069 c-149 -22 -328 -92 -455 -179 -83 -55 -190 -158 -252 -239
-69 -91 -153 -266 -186 -386 l-28 -100 0 -965 0 -965 27 -100 c66 -238 209
-453 397 -596 94 -71 267 -154 385 -184 54 -14 109 -25 122 -25 l24 0 2 -610
3 -610 33 -32 c28 -28 39 -33 82 -33 l50 0 637 637 638 637 860 3 860 3 100
28 c237 64 453 207 596 396 69 91 153 266 186 386 l28 100 0 965 0 965 -28
100 c-33 120 -117 295 -186 386 -143 188 -358 331 -596 397 l-100 27 -1570 1
c-863 1 -1597 -2 -1629 -7z m3164 -240 c182 -29 325 -104 460 -239 136 -136
210 -279 239 -460 15 -88 15 -1771 0 -1860 -26 -164 -102 -318 -219 -443 -109
-117 -227 -188 -393 -239 -71 -22 -80 -22 -969 -28 l-898 -5 -555 -555 -554
-554 -3 522 -3 522 -31 31 c-30 29 -39 32 -130 40 -237 22 -417 108 -572 274
-107 114 -186 276 -211 435 -15 89 -15 1772 0 1860 29 182 104 325 239 460
133 132 280 210 452 239 79 13 3067 13 3148 0z"/>
<path d="M1475 3951 c-11 -5 -31 -21 -45 -36 l-25 -27 0 -689 0 -689 33 -32
32 -33 450 0 450 0 32 33 c28 28 33 39 33 82 0 43 -5 54 -33 82 l-32 33 -365
3 -365 3 0 199 0 199 365 3 365 3 32 33 c28 28 33 39 33 82 0 43 -5 54 -33 82
l-32 33 -365 3 -365 3 0 199 0 199 365 3 365 3 32 33 c28 28 33 39 33 82 0 43
-5 54 -33 82 l-32 33 -438 2 c-240 1 -446 -2 -457 -6z"/>
<path d="M2755 3951 c-11 -5 -31 -21 -45 -36 l-25 -27 0 -689 0 -689 33 -32
c28 -28 39 -33 82 -33 43 0 54 5 82 33 l33 32 5 452 5 452 288 -460 c158 -254
299 -472 313 -485 20 -19 37 -24 75 -24 42 0 53 5 81 33 l33 32 0 690 0 690
-33 32 c-28 28 -39 33 -82 33 -43 0 -54 -5 -82 -33 l-33 -32 -5 -452 -5 -452
-288 460 c-158 254 -298 471 -311 483 -26 25 -89 36 -121 22z"/>
</g>
</svg>
