<svg xmlns="http://www.w3.org/2000/svg" width="512" height="512" viewBox="0 0 512 512">
<rect width="512" height="512" fill="#F5EFE0"/>
<g transform="translate(51.2, 51.2) scale(0.8)">
<g transform="translate(0,512) scale(0.1,-0.1)"
fill="#C17B3F" stroke="none">
<path d="M1055 5106 c-43 -19 -75 -58 -85 -103 -16 -69 0 -99 118 -216 l108
-108 180 -3 c197 -4 304 -19 456 -66 242 -75 442 -190 642 -369 43 -39 84 -71
90 -71 7 0 25 14 42 31 16 17 63 59 104 93 312 260 686 393 1083 384 l127 -2
109 108 c84 84 112 118 119 148 20 77 -23 157 -98 179 -23 7 -185 9 -475 7
l-440 -4 -88 -27 c-105 -32 -190 -74 -272 -132 -59 -42 -164 -146 -198 -195
l-17 -24 -17 24 c-34 49 -139 153 -198 195 -82 58 -167 100 -272 132 l-88 27
-450 3 c-364 2 -456 0 -480 -11z"/>
<path d="M1176 4369 c-207 -28 -431 -117 -606 -240 -42 -29 -181 -157 -313
-288 -253 -251 -267 -270 -253 -346 10 -50 61 -104 111 -115 22 -5 187 -10
367 -10 l326 0 46 68 c170 254 413 427 708 504 74 19 119 22 423 27 l339 6
-68 60 c-175 155 -374 257 -606 312 -119 28 -354 39 -474 22z"/>
<path d="M3560 4365 c-136 -22 -256 -61 -387 -125 -117 -57 -283 -171 -347
-238 l-28 -30 338 -4 c327 -4 342 -5 436 -30 291 -79 526 -248 695 -500 l45
-68 326 0 c180 0 345 5 367 10 80 18 131 109 107 189 -15 49 -462 493 -573
568 -151 103 -334 181 -514 218 -110 23 -356 28 -465 10z"/>
<path d="M1655 3655 c-267 -59 -502 -250 -616 -500 -16 -36 -39 -105 -52 -153
-21 -83 -22 -107 -22 -529 0 -432 0 -442 21 -470 48 -64 129 -91 187 -62 12 6
329 318 705 693 l682 681 683 -681 c375 -375 692 -687 704 -693 58 -29 139 -2
187 62 21 28 21 38 21 470 0 423 -1 446 -22 529 -44 171 -123 308 -251 430
-122 116 -259 189 -424 223 -97 21 -1710 20 -1803 0z"/>
<path d="M2416 2741 l-139 -140 -143 -998 c-79 -549 -143 -999 -144 -1000 0
-2 257 -3 570 -3 314 0 570 1 570 3 -1 1 -65 451 -144 1000 l-143 998 -139
140 c-76 76 -141 139 -144 139 -3 0 -68 -63 -144 -139z"/>
<path d="M1370 282 c-50 -25 -80 -75 -80 -132 0 -57 30 -107 80 -132 33 -17
110 -18 1190 -18 1080 0 1157 1 1190 18 107 53 107 211 0 264 -33 17 -110 18
-1190 18 -1080 0 -1157 -1 -1190 -18z"/>
</g>
</g>
</svg>
